<svg width="162" height="25" viewBox="0 0 162 25" fill="none" xmlns="http://www.w3.org/2000/svg">
<g clip-path="url(#clip0_280_6126)">
<path d="M5.68207 18.764H15.2021V24H0.242073V0.200012H15.0321V5.43601H5.68207V9.38001H14.1821V14.548H5.68207V18.764Z" fill="white"/>
<path d="M24.9093 24.476C19.7413 24.476 15.8993 20.566 15.8993 15.5C15.8993 10.434 19.7413 6.52401 24.9093 6.52401C28.2073 6.52401 31.1313 8.25801 32.5933 10.876L28.1393 13.46C27.5613 12.27 26.3373 11.556 24.8413 11.556C22.6313 11.556 20.9993 13.154 20.9993 15.5C20.9993 17.846 22.6313 19.444 24.8413 19.444C26.3373 19.444 27.5953 18.73 28.1393 17.54L32.5933 20.09C31.1313 22.742 28.2413 24.476 24.9093 24.476Z" fill="white"/>
<path d="M62.0185 0.200012C68.5805 0.200012 73.5785 5.36801 73.5785 12.1C73.5785 18.832 68.5805 24 62.0185 24H52.4985V0.200012H62.0185ZM62.0185 18.764C65.7585 18.764 68.3425 16.18 68.3425 12.1C68.3425 8.02001 65.7585 5.43601 62.0185 5.43601H57.9385V18.764H62.0185Z" fill="white"/>
<path d="M104.444 6.52401C107.878 6.52401 110.802 8.97201 110.802 13.562V24H105.702V14.31C105.702 12.202 104.376 11.216 102.744 11.216C100.874 11.216 99.5818 12.304 99.5818 14.718V24H94.4818V7.00001H99.5818V8.59801C100.5 7.34001 102.2 6.52401 104.444 6.52401Z" fill="white"/>
<path d="M125.626 7.00001H130.726V24H125.626V22.402C124.504 23.694 122.838 24.476 120.56 24.476C116.106 24.476 112.434 20.566 112.434 15.5C112.434 10.434 116.106 6.52401 120.56 6.52401C122.838 6.52401 124.504 7.30601 125.626 8.59801V7.00001ZM121.58 19.648C123.926 19.648 125.626 18.05 125.626 15.5C125.626 12.95 123.926 11.352 121.58 11.352C119.234 11.352 117.534 12.95 117.534 15.5C117.534 18.05 119.234 19.648 121.58 19.648Z" fill="white"/>
<path d="M143.41 11.896H139.908V17.914C139.908 19.376 141.166 19.512 143.41 19.376V24C136.746 24.68 134.808 22.674 134.808 17.914V11.896H132.088V7.00001H134.808V3.77001L139.908 2.24001V7.00001H143.41V11.896Z" fill="white"/>
<path d="M149.501 17.54C150.147 19.308 151.711 19.92 153.581 19.92C154.975 19.92 156.165 19.376 156.845 18.628L160.925 20.974C159.259 23.286 156.743 24.476 153.513 24.476C147.699 24.476 144.095 20.566 144.095 15.5C144.095 10.434 147.767 6.52401 153.139 6.52401C158.103 6.52401 161.775 10.366 161.775 15.5C161.775 16.214 161.707 16.894 161.571 17.54H149.501ZM149.399 13.732H156.709C156.165 11.76 154.635 11.046 153.105 11.046C151.167 11.046 149.875 11.998 149.399 13.732Z" fill="white"/>
<circle cx="83.6" cy="15.5" r="9" fill="#FDBF0C"/>
<circle cx="83.6" cy="15.5" r="7.5" fill="url(#paint0_linear_280_6126)"/>
<path opacity="0.8" fill-rule="evenodd" clip-rule="evenodd" d="M86.005 9.45943C85.2716 9.16718 84.4725 9.00462 83.6359 9.00009L77.1001 15.5359C77.1046 16.3725 77.2672 17.1716 77.5594 17.905L86.005 9.45943ZM83.368 21.9959C81.4616 21.9291 79.764 21.0412 78.6179 19.675L87.775 10.5179C89.1412 11.664 90.0291 13.3616 90.0959 15.268L83.368 21.9959Z" fill="#FDBF0C"/>
<path fill-rule="evenodd" clip-rule="evenodd" d="M40.9793 24.2941C38.4151 24.184 33.1585 22.5096 32.6457 16.6933C32.1328 10.877 36.0646 7.66042 38.0946 6.77916C40.6588 6.00806 46.4283 5.58947 48.9925 10.0839C51.5567 14.5783 50.4883 18.3457 49.6335 19.6675C48.8879 21.0128 46.565 23.5317 42.75 24.1529V20.3856L45.8536 17.2821L45.1464 16.575L42.75 18.9714V14H41.25V17.5429L38.3536 14.6464L37.6464 15.3536L41.25 18.9571V24.2909C41.1605 24.2931 41.0702 24.2941 40.9793 24.2941Z" fill="#27B582"/>
</g>
<defs>
<linearGradient id="paint0_linear_280_6126" x1="83.6" y1="8" x2="83.6" y2="23" gradientUnits="userSpaceOnUse">
<stop stop-color="#FD8E0C"/>
<stop offset="1" stop-color="#FD9D0C"/>
</linearGradient>
<clipPath id="clip0_280_6126">
<rect width="162" height="25" fill="white"/>
</clipPath>
</defs>
</svg>
